<?xml version="1.0" standalone="no"?><!DOCTYPE svg PUBLIC "-//W3C//DTD SVG 1.1//EN" "http://www.w3.org/Graphics/SVG/1.1/DTD/svg11.dtd"><svg t="1566442042505" class="icon" viewBox="0 0 1024 1024" version="1.1" xmlns="http://www.w3.org/2000/svg" p-id="3661" xmlns:xlink="http://www.w3.org/1999/xlink" width="32" height="32"><defs><style type="text/css"></style></defs><path d="M879.6 648.5h-40.9 16.2c13.8-0.8 24.7-12.2 24.7-26.2v26.2zM483.7 327.5v-40.9 16.2c0.8 13.8 12.2 24.7 26.2 24.7h-26.2zM879.6 408.6v40.9-16.2c-0.8-13.8-12.2-24.7-26.2-24.7h26.2z" fill="#ffffff" p-id="3662"></path><path d="M141.3 530.1l260.9-260.9v80.1c3.2 29.6 25.3 53.6 54.1 59.4h423v239.1H443.1c-22.6 0-41 18.3-41 41s18.3 41 41 41h464.5c27.8-5.7 49.5-28.5 53.6-56.8V388.2c-3.5-34.3-32.5-61.1-67.7-61.1h-0.5v-0.1h-54.1v-0.1H484V170.4c0-0.7 0-1.3-0.1-2 0-0.3 0-0.6-0.1-1 0-0.3 0-0.7-0.1-1 0-0.4-0.1-0.8-0.1-1.2 0-0.3-0.1-0.5-0.1-0.8-0.1-0.4-0.1-0.9-0.2-1.3 0-0.2-0.1-0.4-0.1-0.7-0.1-0.4-0.2-0.9-0.3-1.3 0-0.2-0.1-0.4-0.1-0.6l-0.3-1.2c-0.1-0.2-0.1-0.5-0.2-0.7-0.1-0.4-0.2-0.8-0.4-1.1-0.1-0.3-0.2-0.5-0.3-0.8-0.1-0.3-0.3-0.7-0.4-1l-0.3-0.9c-0.1-0.3-0.3-0.6-0.4-0.9-0.1-0.3-0.3-0.7-0.4-1-0.1-0.2-0.2-0.5-0.4-0.7-0.2-0.4-0.4-0.7-0.5-1.1-0.1-0.2-0.2-0.4-0.4-0.6-0.2-0.4-0.4-0.7-0.6-1.1-0.1-0.2-0.2-0.4-0.4-0.6-0.2-0.4-0.5-0.7-0.7-1.1-0.1-0.2-0.3-0.4-0.4-0.6-0.2-0.4-0.5-0.7-0.8-1.1-0.2-0.2-0.3-0.4-0.5-0.6-0.2-0.3-0.5-0.6-0.7-0.9-0.2-0.3-0.5-0.5-0.7-0.8-0.2-0.2-0.4-0.5-0.6-0.7-0.5-0.5-0.9-1-1.4-1.5-0.5-0.5-1-0.9-1.5-1.4-0.2-0.2-0.5-0.4-0.7-0.6-0.3-0.2-0.5-0.5-0.8-0.7-0.3-0.3-0.6-0.5-0.9-0.7-0.2-0.2-0.4-0.3-0.6-0.5-0.4-0.3-0.7-0.5-1.1-0.8-0.2-0.1-0.4-0.3-0.6-0.4-0.4-0.2-0.7-0.5-1.1-0.7-0.2-0.1-0.4-0.2-0.6-0.4-0.4-0.2-0.7-0.4-1.1-0.6-0.2-0.1-0.4-0.2-0.6-0.4-0.4-0.2-0.7-0.4-1.1-0.5-0.2-0.1-0.5-0.2-0.7-0.4-0.3-0.2-0.7-0.3-1-0.4-0.3-0.1-0.6-0.3-0.9-0.4l-0.9-0.3c-0.3-0.1-0.7-0.3-1-0.4-0.3-0.1-0.5-0.2-0.8-0.3-0.4-0.1-0.8-0.3-1.1-0.4-0.2-0.1-0.5-0.1-0.7-0.2l-1.2-0.3c-0.2-0.1-0.4-0.1-0.7-0.2-0.4-0.1-0.9-0.2-1.3-0.3-0.2 0-0.4-0.1-0.7-0.1-0.4-0.1-0.9-0.2-1.3-0.2-0.3 0-0.5-0.1-0.8-0.1-0.4-0.1-0.8-0.1-1.2-0.1-0.3 0-0.7-0.1-1-0.1-0.3 0-0.6-0.1-0.9-0.1-1.3-0.1-2.7-0.1-4.1 0-0.3 0-0.6 0-0.9 0.1-0.3 0-0.7 0-1 0.1-0.4 0-0.8 0.1-1.2 0.1-0.3 0-0.5 0.1-0.8 0.1-0.4 0.1-0.9 0.1-1.3 0.2-0.2 0-0.4 0.1-0.7 0.1-0.4 0.1-0.9 0.2-1.3 0.3-0.2 0.1-0.4 0.1-0.7 0.2l-1.2 0.3c-0.2 0.1-0.5 0.1-0.7 0.2-0.4 0.1-0.8 0.2-1.1 0.4-0.3 0.1-0.5 0.2-0.8 0.3-0.3 0.1-0.7 0.3-1 0.4-0.3 0.1-0.6 0.2-0.9 0.4-0.3 0.1-0.6 0.3-0.9 0.4-0.3 0.1-0.7 0.3-1 0.4-0.2 0.1-0.5 0.2-0.7 0.4-0.4 0.2-0.7 0.4-1.1 0.6-0.2 0.1-0.4 0.2-0.6 0.4-0.4 0.2-0.8 0.4-1.1 0.6-0.2 0.1-0.4 0.2-0.6 0.4-0.4 0.2-0.8 0.5-1.1 0.7-0.2 0.1-0.4 0.3-0.6 0.4-0.4 0.2-0.7 0.5-1.1 0.8-0.2 0.2-0.4 0.3-0.6 0.5-0.3 0.2-0.6 0.5-1 0.7-0.3 0.2-0.5 0.4-0.8 0.7-0.2 0.2-0.5 0.4-0.7 0.6-0.5 0.4-1 0.9-1.4 1.4L55.3 500.3l-0.9 0.9c-8 8-12 18.5-12 29s4 21 12 29l0.9 0.9 358.8 358.8c16 16 41.9 16 57.9 0s16-41.9 0-57.9L141.3 530.1z" fill="#ffffff" p-id="3663"></path></svg>